<?xml version="1.0" standalone="no"?>
<!DOCTYPE svg PUBLIC "-//W3C//DTD SVG 20010904//EN"
 "http://www.w3.org/TR/2001/REC-SVG-20010904/DTD/svg10.dtd">
<svg version="1.0" xmlns="http://www.w3.org/2000/svg"
 width="1029.000000pt" height="242.000000pt" viewBox="0 0 1029.000000 242.000000"
 preserveAspectRatio="xMidYMid meet">

<g transform="translate(0.000000,242.000000) scale(0.100000,-0.100000)"
fill="#000000" stroke="none">
<path d="M3581 2303 c-19 -10 -44 -31 -55 -46 -21 -28 -21 -40 -24 -568 -3
-622 0 -654 69 -798 74 -152 211 -265 369 -302 78 -18 223 -15 295 6 202 58
344 213 396 431 30 124 24 285 -14 397 -52 149 -153 272 -273 331 -75 37 -194
66 -269 66 -70 0 -194 -29 -254 -59 -22 -12 -43 -21 -46 -21 -3 0 -5 102 -5
228 0 201 -3 232 -19 269 -33 71 -106 100 -170 66z m625 -782 c135 -60 205
-221 175 -402 -29 -175 -135 -269 -304 -269 -102 0 -143 16 -208 80 -77 75
-99 136 -99 270 0 110 18 174 65 236 79 104 243 141 371 85z"/>
<path d="M9823 2110 c-95 -57 -80 -203 25 -240 37 -13 47 -13 84 0 54 19 88
67 88 124 0 105 -109 170 -197 116z"/>
<path d="M503 1810 c-121 -22 -249 -92 -323 -178 -55 -63 -117 -191 -135 -277
-11 -52 -15 -144 -15 -355 0 -265 1 -287 20 -317 26 -44 63 -66 109 -66 46 0
94 31 109 70 7 17 13 140 15 313 4 312 11 356 71 434 61 81 133 115 241 116
142 0 219 -45 280 -164 l40 -78 5 -307 c6 -344 6 -345 80 -375 50 -20 99 -7
138 38 l30 34 4 304 c4 283 6 307 27 360 44 113 136 178 263 186 98 6 172 -16
233 -70 97 -86 120 -199 110 -543 -6 -191 -5 -213 12 -244 26 -49 64 -74 113
-74 50 0 88 25 112 74 16 30 18 66 18 294 0 347 -14 433 -92 563 -101 169
-273 264 -478 265 -150 1 -285 -50 -385 -144 -29 -27 -56 -49 -60 -49 -4 0
-31 22 -60 49 -56 53 -139 100 -222 124 -67 20 -194 28 -260 17z"/>
<path d="M5165 1809 c-216 -49 -371 -203 -432 -429 -24 -88 -24 -271 0 -360
56 -212 204 -368 399 -424 91 -26 242 -22 336 10 87 29 126 51 193 106 l46 39
65 -65 c78 -78 117 -90 183 -58 92 44 100 171 15 234 -18 12 -43 42 -57 65
-48 82 -53 125 -53 451 0 328 -1 338 -56 381 -42 33 -115 29 -156 -8 l-32 -28
-65 33 c-36 18 -94 40 -127 48 -67 17 -195 20 -259 5z m231 -277 c100 -35 165
-114 190 -232 41 -196 -37 -384 -181 -433 -119 -41 -260 -11 -337 71 -67 71
-83 123 -83 267 0 110 2 124 27 175 35 72 81 115 154 145 72 30 157 32 230 7z"/>
<path d="M7835 1806 c-212 -52 -362 -203 -421 -426 -24 -87 -24 -272 -1 -360
56 -213 208 -374 403 -424 91 -23 236 -21 320 5 87 27 108 38 189 99 l67 50
45 -50 c47 -53 107 -90 143 -90 56 0 119 59 127 119 7 54 -8 88 -67 145 -32
31 -57 68 -72 104 -21 54 -23 74 -28 387 -4 236 -9 336 -17 352 -40 69 -132
85 -192 35 l-34 -28 -66 32 c-36 18 -94 40 -127 48 -72 19 -198 19 -269 2z
m237 -274 c31 -10 69 -29 86 -43 159 -129 162 -449 5 -578 -50 -41 -113 -61
-194 -61 -130 0 -225 58 -278 170 -24 50 -26 66 -26 180 0 118 2 128 29 182
37 74 79 113 152 143 72 30 149 32 226 7z"/>
<path d="M9196 1804 c-160 -39 -295 -148 -366 -295 -61 -127 -70 -195 -70
-515 0 -297 2 -311 55 -352 58 -46 142 -33 182 27 22 33 23 41 23 280 1 283 9
371 44 439 68 134 227 194 376 142 101 -36 169 -19 205 50 31 60 8 144 -49
179 -88 55 -274 76 -400 45z"/>
<path d="M2605 1786 c-181 -58 -321 -210 -370 -401 -61 -237 -2 -487 154 -645
115 -118 246 -166 426 -157 248 11 423 151 511 407 16 45 19 83 18 215 0 146
-2 166 -26 227 -72 189 -207 316 -384 362 -93 24 -242 21 -329 -8z m282 -251
c72 -21 142 -87 178 -167 26 -57 29 -74 29 -168 0 -84 -5 -116 -23 -161 -29
-76 -88 -141 -153 -170 -72 -32 -202 -34 -268 -3 -60 28 -117 87 -149 154 -24
50 -26 66 -26 180 0 140 13 183 75 254 75 85 213 118 337 81z"/>
<path d="M6138 1764 c-56 -30 -58 -45 -58 -376 0 -276 2 -310 21 -378 67 -246
260 -404 509 -417 114 -6 192 7 278 47 35 17 67 30 69 30 3 0 2 -21 -2 -48
-30 -205 -209 -315 -413 -253 -83 25 -113 26 -152 6 -60 -31 -84 -138 -43
-193 72 -97 323 -132 495 -69 184 67 322 227 363 422 22 105 22 1132 0 1179
-42 87 -178 89 -228 3 -8 -16 -13 -109 -17 -322 -5 -297 -5 -301 -31 -355 -54
-114 -130 -168 -252 -177 -163 -12 -276 64 -321 217 -13 43 -16 106 -16 314 0
147 -5 277 -10 298 -16 55 -61 88 -118 88 -26 -1 -59 -7 -74 -16z"/>
<path d="M9812 1755 c-53 -44 -54 -54 -50 -426 4 -325 5 -347 26 -403 38 -102
93 -189 167 -263 80 -80 124 -100 186 -83 42 12 62 32 84 83 25 61 7 108 -71
180 -44 41 -74 81 -97 126 l-32 65 -5 331 c-4 237 -9 336 -17 352 -39 66 -134
86 -191 38z"/>
<path d="M774 419 c-9 -15 11 -33 30 -26 9 4 13 13 10 22 -7 17 -30 20 -40 4z"/>
<path d="M3777 416 c-9 -22 18 -40 33 -22 6 9 9 20 5 26 -9 15 -32 12 -38 -4z"/>
<path d="M4635 420 c-4 -7 -3 -16 3 -22 14 -14 45 -2 40 15 -6 16 -34 21 -43
7z"/>
<path d="M510 283 l0 -138 54 -2 c49 -2 57 0 75 23 29 37 29 112 -1 149 -18
24 -26 26 -60 21 l-38 -6 0 45 c0 33 -4 45 -15 45 -13 0 -15 -22 -15 -137z
m110 -8 c9 -26 9 -44 0 -69 -13 -39 -33 -51 -61 -36 -15 9 -19 22 -19 63 0 58
12 77 46 77 17 0 25 -9 34 -35z"/>
<path d="M927 414 c-14 -14 -7 -23 21 -26 l27 -3 5 -112 c3 -63 10 -117 16
-123 14 -14 79 -9 79 5 0 5 -13 12 -30 15 l-30 5 -5 120 -5 120 -35 3 c-20 2
-39 0 -43 -4z"/>
<path d="M1580 283 l0 -138 53 -2 c80 -4 92 9 92 97 0 86 -16 105 -77 95 l-38
-7 0 46 c0 34 -4 46 -15 46 -13 0 -15 -22 -15 -137z m111 0 c19 -50 -6 -123
-42 -123 -33 0 -52 87 -29 131 16 30 58 25 71 -8z"/>
<path d="M3940 283 l0 -138 53 -2 c76 -4 90 10 95 90 4 57 1 68 -18 87 -21 21
-30 22 -80 9 -11 -3 -16 7 -18 44 -2 33 -7 47 -18 47 -11 0 -14 -24 -14 -137z
m111 0 c19 -50 -6 -123 -42 -123 -33 0 -52 87 -29 131 16 30 58 25 71 -8z"/>
<path d="M6084 407 c-2 -7 -3 -69 -2 -137 3 -110 5 -125 21 -128 15 -3 17 5
17 70 0 79 9 98 46 98 27 0 34 -23 34 -107 0 -49 3 -63 15 -63 22 0 22 162 -1
184 -17 18 -60 21 -69 6 -14 -23 -25 -7 -25 40 0 38 -4 50 -15 50 -9 0 -18 -6
-21 -13z"/>
<path d="M3330 361 c0 -10 -9 -21 -20 -24 -11 -3 -20 -10 -20 -16 0 -6 9 -11
20 -11 18 0 20 -7 20 -68 0 -81 17 -105 71 -100 46 4 51 28 5 28 -41 0 -49 17
-44 91 3 42 5 44 36 47 40 4 38 26 -2 30 -18 2 -30 11 -33 23 -7 25 -33 25
-33 0z"/>
<path d="M60 240 c0 -81 3 -100 15 -100 11 0 15 18 17 82 3 69 6 83 20 86 15
3 18 -8 20 -79 2 -55 7 -84 16 -87 9 -3 12 16 12 71 0 53 4 78 15 87 26 21 35
0 35 -81 0 -60 3 -80 13 -77 8 3 13 33 15 90 3 96 -9 120 -51 101 -15 -7 -27
-7 -39 1 -13 8 -23 8 -38 -1 -12 -8 -21 -9 -25 -3 -17 28 -25 1 -25 -90z"/>
<path d="M309 314 c-19 -21 -24 -36 -24 -81 0 -46 4 -58 24 -74 32 -26 82 -25
109 4 33 35 31 119 -3 152 -32 33 -74 33 -106 -1z m91 -23 c17 -33 12 -89 -10
-111 -24 -24 -34 -25 -54 -4 -19 19 -22 104 -4 122 18 18 56 14 68 -7z"/>
<path d="M737 334 c-14 -14 -7 -24 18 -24 24 0 25 -2 25 -70 0 -68 -1 -70 -25
-70 -16 0 -25 -6 -25 -15 0 -12 14 -15 70 -15 56 0 70 3 70 15 0 9 -9 15 -25
15 -24 0 -24 2 -27 83 l-3 82 -35 3 c-20 2 -39 0 -43 -4z"/>
<path d="M1169 311 c-22 -22 -29 -39 -29 -68 0 -36 20 -78 44 -95 15 -11 78
-10 95 1 24 15 3 31 -26 20 -31 -12 -76 13 -71 39 2 13 16 18 61 20 56 3 57 4
57 33 0 38 -40 79 -75 79 -16 0 -38 -12 -56 -29z m92 -22 c15 -28 3 -39 -42
-39 -32 0 -39 3 -39 19 0 24 36 52 56 44 8 -3 19 -14 25 -24z"/>
<path d="M1813 333 c-26 -10 -12 -23 25 -23 69 0 86 -44 21 -53 -70 -9 -103
-63 -61 -100 22 -20 73 -22 90 -5 9 9 15 9 24 0 22 -22 25 -13 20 71 -3 67 -8
85 -24 100 -19 16 -68 22 -95 10z m82 -104 c12 -18 -4 -56 -26 -62 -31 -8 -49
2 -49 29 0 33 60 59 75 33z"/>
<path d="M2000 328 c0 -7 14 -56 31 -110 26 -80 29 -101 19 -113 -7 -8 -19
-15 -26 -15 -8 0 -14 -7 -14 -16 0 -18 35 -11 63 14 19 17 94 239 83 249 -13
13 -33 -23 -51 -89 -9 -38 -21 -68 -25 -68 -4 0 -15 30 -25 68 -10 37 -22 73
-28 80 -12 15 -27 16 -27 0z"/>
<path d="M2243 333 c-26 -10 -12 -23 25 -23 39 0 62 -14 62 -37 0 -8 -12 -13
-31 -13 -53 0 -89 -26 -89 -66 0 -43 56 -68 101 -43 15 8 24 7 35 -2 8 -6 16
-10 18 -8 2 2 0 42 -3 87 -5 66 -10 87 -26 98 -18 14 -67 18 -92 7z m85 -119
c4 -28 -31 -58 -57 -49 -26 8 -28 50 -3 64 26 16 57 9 60 -15z"/>
<path d="M2440 326 c0 -8 7 -16 15 -20 11 -4 15 -21 15 -66 0 -45 -4 -62 -15
-66 -8 -4 -15 -12 -15 -20 0 -10 14 -14 50 -14 38 0 50 4 50 15 0 8 -9 15 -20
15 -17 0 -20 7 -20 45 0 37 6 51 28 73 l27 27 3 -22 c6 -38 32 -28 32 12 0 29
-4 35 -22 35 -12 0 -32 -10 -45 -22 l-24 -22 -6 22 c-6 25 -53 32 -53 8z"/>
<path d="M2870 325 c0 -8 5 -15 10 -15 6 0 10 -30 10 -70 0 -40 -4 -70 -10
-70 -5 0 -10 -7 -10 -15 0 -11 12 -15 44 -15 48 0 72 18 37 27 -29 8 -30 79 0
117 24 31 39 33 39 6 0 -11 7 -20 15 -20 10 0 15 11 15 35 0 29 -4 35 -22 35
-12 0 -32 -9 -44 -21 l-22 -21 -11 21 c-13 24 -51 28 -51 6z"/>
<path d="M3103 316 c-24 -21 -28 -32 -28 -74 0 -65 31 -102 84 -102 41 0 67
13 57 29 -5 7 -14 7 -31 -1 -30 -13 -75 12 -75 42 0 18 7 20 60 20 l60 0 0 30
c0 38 -39 80 -74 80 -14 0 -38 -11 -53 -24z m88 -27 c15 -28 3 -39 -42 -39
-32 0 -39 3 -39 19 0 24 36 52 56 44 8 -3 19 -14 25 -24z"/>
<path d="M3514 329 c-4 -7 1 -16 10 -21 22 -12 23 -133 1 -142 -32 -12 -13
-26 35 -26 38 0 50 4 50 15 0 8 -9 15 -20 15 -16 0 -20 7 -20 35 0 65 51 130
65 84 10 -31 25 -22 25 16 0 41 -22 47 -63 15 -25 -20 -25 -20 -30 0 -6 22
-41 27 -53 9z"/>
<path d="M3737 334 c-14 -14 -7 -23 21 -26 26 -3 27 -5 30 -70 l3 -68 -31 0
c-20 0 -30 -5 -30 -15 0 -12 14 -15 70 -15 56 0 70 3 70 15 0 9 -9 15 -25 15
-24 0 -24 2 -27 83 l-3 82 -35 3 c-20 2 -39 0 -43 -4z"/>
<path d="M4157 334 c-11 -11 -8 -139 3 -168 8 -21 16 -26 44 -26 19 0 38 5 41
10 5 8 11 7 21 -1 26 -22 35 4 32 97 -2 71 -6 89 -18 89 -12 0 -16 -18 -20
-78 -3 -54 -10 -81 -20 -87 -37 -23 -49 -3 -52 85 -3 72 -13 97 -31 79z"/>
<path d="M4392 324 c-16 -11 -22 -24 -20 -42 3 -25 11 -31 78 -62 8 -4 16 -16
18 -28 4 -26 -25 -36 -63 -22 -34 13 -55 2 -30 -17 28 -20 99 -17 118 5 35 38
14 84 -42 97 -69 15 -64 60 5 52 49 -5 66 6 35 22 -29 16 -73 13 -99 -5z"/>
<path d="M4597 334 c-14 -14 -7 -23 21 -26 26 -3 27 -5 27 -68 0 -63 -1 -65
-27 -68 -16 -2 -28 -9 -28 -18 0 -11 16 -14 70 -14 56 0 70 3 70 15 0 9 -9 15
-25 15 -25 0 -25 1 -25 80 0 69 -2 80 -17 80 -10 0 -27 3 -38 6 -11 3 -24 2
-28 -2z"/>
<path d="M5031 321 c-11 -11 -21 -28 -21 -36 0 -20 32 -46 72 -59 39 -13 48
-40 18 -56 -16 -8 -30 -9 -52 -1 -37 13 -58 3 -33 -16 29 -20 101 -17 125 7
11 11 20 26 20 33 0 26 -30 54 -69 66 -23 6 -41 18 -41 26 0 22 30 34 59 24
16 -6 28 -6 34 0 15 15 3 23 -46 28 -36 4 -49 1 -66 -16z"/>
<path d="M5243 333 c-28 -11 -11 -23 31 -23 31 0 46 -5 50 -16 10 -27 7 -34
-18 -34 -70 0 -112 -49 -82 -95 12 -18 25 -25 49 -25 18 0 38 5 45 12 8 8 15
8 27 -2 11 -9 19 -10 26 -3 8 8 7 13 0 17 -6 4 -11 37 -11 76 0 60 -3 71 -22
84 -22 15 -69 20 -95 9z m87 -123 c0 -37 -39 -62 -65 -40 -34 28 -7 67 48 69
12 1 17 -7 17 -29z"/>
<path d="M5466 331 c-3 -5 -15 -7 -26 -4 -19 5 -20 0 -20 -92 0 -86 2 -96 18
-93 14 3 17 17 20 86 2 72 5 83 20 80 14 -3 17 -17 20 -86 3 -101 22 -109 22
-9 0 72 10 97 37 97 8 0 13 -24 15 -82 2 -54 7 -83 16 -86 20 -6 17 172 -4
189 -13 10 -19 10 -36 0 -15 -9 -23 -10 -31 -2 -13 13 -44 14 -51 2z"/>
<path d="M5664 332 c-14 -9 -17 -241 -4 -262 13 -21 28 -3 32 40 3 33 5 35 38
32 48 -4 72 23 77 85 6 80 -32 127 -86 106 -16 -6 -33 -7 -38 -2 -4 4 -13 5
-19 1z m94 -34 c7 -7 12 -33 12 -59 0 -38 -5 -51 -22 -63 -37 -26 -58 -5 -58
57 0 54 12 77 40 77 9 0 21 -5 28 -12z"/>
<path d="M5883 332 c-21 -13 1 -27 42 -27 33 0 41 -4 43 -21 3 -18 -3 -22 -40
-27 -23 -3 -48 -13 -55 -23 -16 -22 -17 -66 -1 -82 15 -15 70 -16 85 -1 8 8
17 7 31 -2 12 -7 23 -11 25 -9 2 3 1 43 -2 88 -5 66 -10 87 -26 98 -20 15 -82
19 -102 6z m95 -114 c4 -19 -31 -58 -53 -58 -18 0 -37 34 -29 54 11 29 77 32
82 4z"/>
</g>
</svg>
